<svg xmlns="http://www.w3.org/2000/svg" xmlns:xlink="http://www.w3.org/1999/xlink" viewBox="0 0 500 500" width="500"
    height="500" style="width: 100%; height: 100%; transform: translate3d(0px, 0px, 0px);"
    preserveAspectRatio="xMidYMid meet">
    <defs>
        <clipPath id="__lottie_element_42">
            <rect width="500" height="500" x="0" y="0"></rect>
        </clipPath>
    </defs>
    <g clip-path="url(#__lottie_element_42)">
        <g style="display: none;"
            transform="matrix(0.35484111309051514,0.6978234052658081,-0.6978234052658081,0.35484111309051514,447.87689208984375,460.57293701171875)"
            opacity="0.0007142857142851256">
            <path fill="rgb(255,255,255)" fill-opacity="1"
                d=" M-12.694000244140625,-85.49600219726562 C-12.694000244140625,-85.4020004272461 -13.013999938964844,3.934000015258789 -12.739999771118164,4.0269999504089355 C-12.800999641418457,4.00600004196167 11.093000411987305,29.57200050354004 11.093000411987305,29.57200050354004 C11.093000411987305,29.57200050354004 -14.329999923706055,55.099998474121094 -14.329999923706055,55.099998474121094 C-14.329999923706055,55.099998474121094 11.029999732971191,80.68000030517578 11.029999732971191,80.68000030517578 C11.029999732971191,80.68000030517578 -14.262999534606934,106.24199676513672 -14.262999534606934,106.24199676513672 C-14.262999534606934,106.24199676513672 10.843999862670898,131.7480010986328 10.843999862670898,131.7480010986328 C10.843999862670898,131.7480010986328 -14.293999671936035,157.29600524902344 -14.293999671936035,157.29600524902344 C-14.293999671936035,157.29600524902344 11.359000205993652,182.8489990234375 11.359000205993652,182.8489990234375 C11.359000205993652,182.8489990234375 -12.753999710083008,206.48599243164062 -12.753999710083008,206.48599243164062 C-12.753999710083008,206.48599243164062 -12.77400016784668,233.9510040283203 -12.77400016784668,233.9530029296875 C38.31700134277344,234.5679931640625 82.79000091552734,201.8249969482422 82.51599884033203,137.86500549316406 C82.79000091552734,74.08699798583984 19.239999771118164,42.15399932861328 -12.694000244140625,-85.49600219726562z M30.656999588012695,205.83799743652344 C51.095001220703125,194.97999572753906 57.486000061035156,185.95399475097656 63.86899948120117,169.43299865722656">
            </path>
            <g opacity="1" transform="matrix(1,0,0,1,0,0)">
                <path fill="rgb(255,255,255)" fill-opacity="1"
                    d=" M-12.694000244140625,-85.49600219726562 C-12.694000244140625,-85.4020004272461 -13.013999938964844,3.934000015258789 -12.739999771118164,4.0269999504089355 C-12.800999641418457,4.00600004196167 11.093000411987305,29.57200050354004 11.093000411987305,29.57200050354004 C11.093000411987305,29.57200050354004 -14.329999923706055,55.099998474121094 -14.329999923706055,55.099998474121094 C-14.329999923706055,55.099998474121094 11.029999732971191,80.68000030517578 11.029999732971191,80.68000030517578 C11.029999732971191,80.68000030517578 -14.262999534606934,106.24199676513672 -14.262999534606934,106.24199676513672 C-14.262999534606934,106.24199676513672 10.843999862670898,131.7480010986328 10.843999862670898,131.7480010986328 C10.843999862670898,131.7480010986328 -14.293999671936035,157.29600524902344 -14.293999671936035,157.29600524902344 C-14.293999671936035,157.29600524902344 11.359000205993652,182.8489990234375 11.359000205993652,182.8489990234375 C11.359000205993652,182.8489990234375 -12.753999710083008,206.48599243164062 -12.753999710083008,206.48599243164062 C-12.753999710083008,206.48599243164062 -12.77400016784668,233.9510040283203 -12.77400016784668,233.9530029296875 C38.31700134277344,234.5679931640625 82.79000091552734,201.8249969482422 82.51599884033203,137.86500549316406 C82.79000091552734,74.08699798583984 19.239999771118164,42.15399932861328 -12.694000244140625,-85.49600219726562z">
                </path>
            </g>
            <g opacity="1" transform="matrix(1,0,0,1,0,0)">
                <path stroke-linecap="round" stroke-linejoin="miter" fill-opacity="0" stroke-miterlimit="4"
                    stroke="rgb(0,0,0)" stroke-opacity="1" stroke-width="8"
                    d=" M30.656999588012695,205.83799743652344 C51.095001220703125,194.97999572753906 57.486000061035156,185.95399475097656 63.86899948120117,169.43299865722656">
                </path>
            </g>
        </g>
        <g style="display: none;"
            transform="matrix(0.35484111309051514,-0.6978234052658081,0.6978234052658081,0.35484111309051514,57.453468322753906,469.5091247558594)"
            opacity="0.0007142857142851256">
            <path fill="rgb(255,255,255)" fill-opacity="1"
                d=" M-12.77400016784668,-85.49600219726562 C-49.17900085449219,42.79199981689453 -108.02999877929688,74.08799743652344 -108.3030014038086,137.86500549316406 C-108.5770034790039,201.8249969482422 -76.64299774169922,234.3070068359375 -12.77400016784668,234.0330047607422 C-12.77400016784668,235.04800415039062 -12.847000122070312,208.98199462890625 -12.847000122070312,208.98199462890625 C-12.847000122070312,208.98199462890625 12.585000038146973,183.4530029296875 12.585000038146973,183.4530029296875 C12.585000038146973,183.4530029296875 -12.887999534606934,157.82400512695312 -12.887999534606934,157.82400512695312 C-12.887999534606934,157.82400512695312 12.668000221252441,132.35899353027344 12.668000221252441,132.35899353027344 C12.668000221252441,132.35899353027344 -12.942000389099121,106.74199676513672 -12.942000389099121,106.74199676513672 C-12.942000389099121,106.74199676513672 12.555000305175781,81.26399993896484 12.555000305175781,81.26399993896484 C12.555000305175781,81.26399993896484 -12.902000427246094,55.62300109863281 -12.902000427246094,55.62300109863281 C-12.902000427246094,55.62300109863281 12.552000045776367,30.170000076293945 12.552000045776367,30.170000076293945 C12.552000045776367,30.170000076293945 -12.8100004196167,4.302000045776367 -12.810999870300293,4.302000045776367 C-12.809000015258789,4.302000045776367 -12.77400016784668,-85.49099731445312 -12.77400016784668,-85.49600219726562z">
            </path>
            <g opacity="1" transform="matrix(1,0,0,1,0,0)">
                <path fill="rgb(255,255,255)" fill-opacity="1"
                    d=" M-12.77400016784668,-85.49600219726562 C-49.17900085449219,42.79199981689453 -108.02999877929688,74.08799743652344 -108.3030014038086,137.86500549316406 C-108.5770034790039,201.8249969482422 -76.64299774169922,234.3070068359375 -12.77400016784668,234.0330047607422 C-12.77400016784668,235.04800415039062 -12.847000122070312,208.98199462890625 -12.847000122070312,208.98199462890625 C-12.847000122070312,208.98199462890625 12.585000038146973,183.4530029296875 12.585000038146973,183.4530029296875 C12.585000038146973,183.4530029296875 -12.887999534606934,157.82400512695312 -12.887999534606934,157.82400512695312 C-12.887999534606934,157.82400512695312 12.668000221252441,132.35899353027344 12.668000221252441,132.35899353027344 C12.668000221252441,132.35899353027344 -12.942000389099121,106.74199676513672 -12.942000389099121,106.74199676513672 C-12.942000389099121,106.74199676513672 12.555000305175781,81.26399993896484 12.555000305175781,81.26399993896484 C12.555000305175781,81.26399993896484 -12.902000427246094,55.62300109863281 -12.902000427246094,55.62300109863281 C-12.902000427246094,55.62300109863281 12.552000045776367,30.170000076293945 12.552000045776367,30.170000076293945 C12.552000045776367,30.170000076293945 -12.8100004196167,4.302000045776367 -12.810999870300293,4.302000045776367 C-12.809000015258789,4.302000045776367 -12.77400016784668,-85.49099731445312 -12.77400016784668,-85.49600219726562z">
                </path>
            </g>
            <g opacity="1" transform="matrix(1,0,0,1,0,0)">
                <path fill="rgb(255,255,255)" fill-opacity="1" d="M0 0"></path>
            </g>
        </g>
        <g style="display: none;" transform="matrix(1,0,0,1,266,308)" opacity="1">
            <g opacity="1" transform="matrix(1,0,0,1,0,0)">
                <path stroke-linecap="round" stroke-linejoin="miter" fill-opacity="0" stroke-miterlimit="4"
                    stroke="rgb(255,255,255)" stroke-opacity="0" stroke-width="8"
                    d=" M92.5,-25.5 C118.5,22 78,78 17,55.5"></path>
            </g>
            <g opacity="1" transform="matrix(1,0,0,1,0,0)">
                <path stroke-linecap="round" stroke-linejoin="miter" fill-opacity="0" stroke-miterlimit="4"
                    stroke="rgb(255,255,255)" stroke-opacity="0" stroke-width="8"
                    d=" M-21.5,36 C-51,67.5 -101.5,46.5 -95,9.5"></path>
            </g>
            <g opacity="1" transform="matrix(1,0,0,1,0,0)">
                <path stroke-linecap="round" stroke-linejoin="miter" fill-opacity="0" stroke-miterlimit="4"
                    stroke="rgb(255,255,255)" stroke-opacity="0" stroke-width="8"
                    d=" M-114,28 C-130,27.5 -155,-32.5 -141.5,-60.5"></path>
            </g>
            <g opacity="1" transform="matrix(1,0,0,1,0,0)">
                <path stroke-linecap="round" stroke-linejoin="miter" fill-opacity="0" stroke-miterlimit="4"
                    stroke="rgb(255,255,255)" stroke-opacity="0" stroke-width="8"
                    d=" M-119,-70.5 C-139,-115.5 -34,-168 -33.5,-128"></path>
            </g>
            <g opacity="1" transform="matrix(1,0,0,1,0,0)">
                <path stroke-linecap="round" stroke-linejoin="miter" fill-opacity="0" stroke-miterlimit="4"
                    stroke="rgb(255,255,255)" stroke-opacity="0" stroke-width="8"
                    d=" M0.5,-124 C41,-149 87,-119 81.5,-82"></path>
            </g>
        </g>
        <g style="display: block;" transform="matrix(0.7828599810600281,0,0,0.7828599810600281,250,185.85800170898438)"
            opacity="1">
            <path fill="rgb(255,255,255)" fill-opacity="1"
                d=" M-12.694000244140625,-85.49600219726562 C-12.694000244140625,-85.4020004272461 -13.013999938964844,3.934000015258789 -12.739999771118164,4.0269999504089355 C-12.800999641418457,4.00600004196167 11.093000411987305,29.57200050354004 11.093000411987305,29.57200050354004 C11.093000411987305,29.57200050354004 -14.329999923706055,55.099998474121094 -14.329999923706055,55.099998474121094 C-14.329999923706055,55.099998474121094 11.029999732971191,80.68000030517578 11.029999732971191,80.68000030517578 C11.029999732971191,80.68000030517578 -14.262999534606934,106.24199676513672 -14.262999534606934,106.24199676513672 C-14.262999534606934,106.24199676513672 10.843999862670898,131.7480010986328 10.843999862670898,131.7480010986328 C10.843999862670898,131.7480010986328 -14.293999671936035,157.29600524902344 -14.293999671936035,157.29600524902344 C-14.293999671936035,157.29600524902344 11.359000205993652,182.8489990234375 11.359000205993652,182.8489990234375 C11.359000205993652,182.8489990234375 -12.753999710083008,206.48599243164062 -12.753999710083008,206.48599243164062 C-12.753999710083008,206.48599243164062 -12.77400016784668,233.9510040283203 -12.77400016784668,233.9530029296875 C38.31700134277344,234.5679931640625 82.79000091552734,201.8249969482422 82.51599884033203,137.86500549316406 C82.79000091552734,74.08699798583984 19.239999771118164,42.15399932861328 -12.694000244140625,-85.49600219726562z M30.656999588012695,205.83799743652344 C51.095001220703125,194.97999572753906 57.486000061035156,185.95399475097656 63.86899948120117,169.43299865722656">
            </path>
            <g opacity="1" transform="matrix(1,0,0,1,0,0)">
                <path fill="rgb(255,255,255)" fill-opacity="1"
                    d=" M-12.694000244140625,-85.49600219726562 C-12.694000244140625,-85.4020004272461 -13.013999938964844,3.934000015258789 -12.739999771118164,4.0269999504089355 C-12.800999641418457,4.00600004196167 11.093000411987305,29.57200050354004 11.093000411987305,29.57200050354004 C11.093000411987305,29.57200050354004 -14.329999923706055,55.099998474121094 -14.329999923706055,55.099998474121094 C-14.329999923706055,55.099998474121094 11.029999732971191,80.68000030517578 11.029999732971191,80.68000030517578 C11.029999732971191,80.68000030517578 -14.262999534606934,106.24199676513672 -14.262999534606934,106.24199676513672 C-14.262999534606934,106.24199676513672 10.843999862670898,131.7480010986328 10.843999862670898,131.7480010986328 C10.843999862670898,131.7480010986328 -14.293999671936035,157.29600524902344 -14.293999671936035,157.29600524902344 C-14.293999671936035,157.29600524902344 11.359000205993652,182.8489990234375 11.359000205993652,182.8489990234375 C11.359000205993652,182.8489990234375 -12.753999710083008,206.48599243164062 -12.753999710083008,206.48599243164062 C-12.753999710083008,206.48599243164062 -12.77400016784668,233.9510040283203 -12.77400016784668,233.9530029296875 C38.31700134277344,234.5679931640625 82.79000091552734,201.8249969482422 82.51599884033203,137.86500549316406 C82.79000091552734,74.08699798583984 19.239999771118164,42.15399932861328 -12.694000244140625,-85.49600219726562z">
                </path>
            </g>
            <g opacity="1" transform="matrix(1,0,0,1,0,0)">
                <path stroke-linecap="round" stroke-linejoin="miter" fill-opacity="0" stroke-miterlimit="4"
                    stroke="rgb(0,0,0)" stroke-opacity="1" stroke-width="8"
                    d=" M30.656999588012695,205.83799743652344 C51.095001220703125,194.97999572753906 57.486000061035156,185.95399475097656 63.86899948120117,169.43299865722656">
                </path>
            </g>
        </g>
        <g style="display: block;"
            transform="matrix(0.7828599810600281,0,0,0.7828599810600281,250.0556640625,185.55661010742188)" opacity="1">
            <path fill="rgb(255,255,255)" fill-opacity="1"
                d=" M-12.77400016784668,-85.49600219726562 C-49.17900085449219,42.79199981689453 -108.02999877929688,74.08799743652344 -108.3030014038086,137.86500549316406 C-108.5770034790039,201.8249969482422 -76.64299774169922,234.3070068359375 -12.77400016784668,234.0330047607422 C-12.77400016784668,235.04800415039062 -12.847000122070312,208.98199462890625 -12.847000122070312,208.98199462890625 C-12.847000122070312,208.98199462890625 12.585000038146973,183.4530029296875 12.585000038146973,183.4530029296875 C12.585000038146973,183.4530029296875 -12.887999534606934,157.82400512695312 -12.887999534606934,157.82400512695312 C-12.887999534606934,157.82400512695312 12.668000221252441,132.35899353027344 12.668000221252441,132.35899353027344 C12.668000221252441,132.35899353027344 -12.942000389099121,106.74199676513672 -12.942000389099121,106.74199676513672 C-12.942000389099121,106.74199676513672 12.555000305175781,81.26399993896484 12.555000305175781,81.26399993896484 C12.555000305175781,81.26399993896484 -12.902000427246094,55.62300109863281 -12.902000427246094,55.62300109863281 C-12.902000427246094,55.62300109863281 12.552000045776367,30.170000076293945 12.552000045776367,30.170000076293945 C12.552000045776367,30.170000076293945 -12.8100004196167,4.302000045776367 -12.810999870300293,4.302000045776367 C-12.809000015258789,4.302000045776367 -12.77400016784668,-85.49099731445312 -12.77400016784668,-85.49600219726562z">
            </path>
            <g opacity="1" transform="matrix(1,0,0,1,0,0)">
                <path fill="rgb(255,255,255)" fill-opacity="1"
                    d=" M-12.77400016784668,-85.49600219726562 C-49.17900085449219,42.79199981689453 -108.02999877929688,74.08799743652344 -108.3030014038086,137.86500549316406 C-108.5770034790039,201.8249969482422 -76.64299774169922,234.3070068359375 -12.77400016784668,234.0330047607422 C-12.77400016784668,235.04800415039062 -12.847000122070312,208.98199462890625 -12.847000122070312,208.98199462890625 C-12.847000122070312,208.98199462890625 12.585000038146973,183.4530029296875 12.585000038146973,183.4530029296875 C12.585000038146973,183.4530029296875 -12.887999534606934,157.82400512695312 -12.887999534606934,157.82400512695312 C-12.887999534606934,157.82400512695312 12.668000221252441,132.35899353027344 12.668000221252441,132.35899353027344 C12.668000221252441,132.35899353027344 -12.942000389099121,106.74199676513672 -12.942000389099121,106.74199676513672 C-12.942000389099121,106.74199676513672 12.555000305175781,81.26399993896484 12.555000305175781,81.26399993896484 C12.555000305175781,81.26399993896484 -12.902000427246094,55.62300109863281 -12.902000427246094,55.62300109863281 C-12.902000427246094,55.62300109863281 12.552000045776367,30.170000076293945 12.552000045776367,30.170000076293945 C12.552000045776367,30.170000076293945 -12.8100004196167,4.302000045776367 -12.810999870300293,4.302000045776367 C-12.809000015258789,4.302000045776367 -12.77400016784668,-85.49099731445312 -12.77400016784668,-85.49600219726562z">
                </path>
            </g>
            <g opacity="1" transform="matrix(1,0,0,1,0,0)">
                <path fill="rgb(255,255,255)" fill-opacity="1" d="M0 0"></path>
            </g>
        </g>
        <g style="display: block;" transform="matrix(1,0,0,1,250,299)" opacity="1">
            <g opacity="1" transform="matrix(1,0,0,1,0,0)">
                <path fill="rgb(255,255,255)" fill-opacity="1"
                    d=" M-10,-179 C-30,-90 -83,-50 -83,-10 C-83,30 -70,70 -10,70 C50,70 64.625,30 64.625,-10 C64.625,-50 10,-90 -10,-179z">
                </path>
            </g>
            <g opacity="1" transform="matrix(0.7829999923706055,0,0,0.7829999923706055,0,-113.30000305175781)">
                <path stroke-linecap="round" stroke-linejoin="miter" fill-opacity="0" stroke-miterlimit="4"
                    stroke="rgb(0,0,0)" stroke-opacity="1" stroke-width="8"
                    d=" M30.656999588012695,205.83799743652344 C51.095001220703125,194.97999572753906 57.486000061035156,185.95399475097656 63.86899948120117,169.43299865722656">
                </path>
            </g>
        </g>
        <g style="display: block;" transform="matrix(1,0,0,1,250,250)" opacity="1"></g>
        <g style="display: block;" transform="matrix(1,0,0,1,250,250)" opacity="1">
            <g opacity="1" transform="matrix(1,0,0,1,-6,0)">
                <path stroke-linecap="butt" stroke-linejoin="miter" fill-opacity="0" stroke-miterlimit="4"
                    stroke="rgb(255,255,255)" stroke-opacity="1" stroke-width="8"
                    d=" M-150,201 C-150,201 -100,152 -100,152 C-100,152 -50,200 -50,200 C-50,200 0,151 0,151 C0,151 50,201 50,201 C50,201 100,152 100,152 C100,152 149,201 149,201">
                </path>
            </g>
        </g>
    </g>
</svg>