<svg xmlns="http://www.w3.org/2000/svg" xmlns:xlink="http://www.w3.org/1999/xlink" viewBox="0 0 500 500" width="500"
    height="500" style="width: 100%; height: 100%; transform: translate3d(0px, 0px, 0px);"
    preserveAspectRatio="xMidYMid meet">
    <defs>
        <clipPath id="__lottie_element_200">
            <rect width="500" height="500" x="0" y="0"></rect>
        </clipPath>
    </defs>
    <g clip-path="url(#__lottie_element_200)">
        <g style="display: block;" transform="matrix(1,0,0,1,250,250)" opacity="1">
            <g opacity="1" transform="matrix(0.8286899924278259,0,0,0.8286899924278259,-1,27)">
                <path stroke-linecap="butt" stroke-linejoin="miter" fill-opacity="0" stroke-miterlimit="4"
                    stroke="rgb(255,255,255)" stroke-opacity="1" stroke-width="25"
                    d=" M0,-197 C108.72429656982422,-197 197,-108.72429656982422 197,0 C197,108.72429656982422 108.72429656982422,197 0,197 C-108.72429656982422,197 -197,108.72429656982422 -197,0 C-197,-108.72429656982422 -108.72429656982422,-197 0,-197z">
                </path>
            </g>
        </g>
        <g style="display: block;" transform="matrix(1,0,0,1,249,277)" opacity="1">
            <g opacity="1" transform="matrix(1,0,0,1,1.5,-66)">
                <path fill="rgb(255,255,255)" fill-opacity="1"
                    d=" M6.5,-72 C6.5,-72 6.5,72 6.5,72 C6.5,72 -6.5,72 -6.5,72 C-6.5,72 -6.5,-72 -6.5,-72 C-6.5,-72 6.5,-72 6.5,-72z">
                </path>
                <path stroke-linecap="butt" stroke-linejoin="miter" fill-opacity="0" stroke-miterlimit="4"
                    stroke="rgb(255,255,255)" stroke-opacity="1" stroke-width="8"
                    d=" M6.5,-72 C6.5,-72 6.5,72 6.5,72 C6.5,72 -6.5,72 -6.5,72 C-6.5,72 -6.5,-72 -6.5,-72 C-6.5,-72 6.5,-72 6.5,-72z">
                </path>
            </g>
            <g opacity="1" transform="matrix(1,0,0,1,0,0)">
                <path fill="rgb(255,255,255)" fill-opacity="1" d=" M-371,231"></path>
                <path stroke-linecap="butt" stroke-linejoin="miter" fill-opacity="0" stroke-miterlimit="4"
                    stroke="rgb(255,255,255)" stroke-opacity="1" stroke-width="8" d=" M-371,231"></path>
            </g>
        </g>
        <g style="display: block;" transform="matrix(1,0,0,1,250,250)" opacity="1">
            <g opacity="1" transform="matrix(1,0,0,1,0,0)">
                <path fill="rgb(255,255,255)" fill-opacity="1"
                    d=" M50,-200 C50,-200 -50,-201 -50,-200 C-50,-171.5 -15,-138 -13,-138 C9,-138 15,-138 15,-138 C15,-138 50,-172.5 50,-200z">
                </path>
                <path stroke-linecap="butt" stroke-linejoin="miter" fill-opacity="0" stroke-miterlimit="4"
                    stroke="rgb(255,255,255)" stroke-opacity="1" stroke-width="8"
                    d=" M50,-200 C50,-200 -50,-201 -50,-200 C-50,-171.5 -15,-138 -13,-138 C9,-138 15,-138 15,-138 C15,-138 50,-172.5 50,-200z">
                </path>
            </g>
        </g>
    </g>
</svg>