<svg xmlns="http://www.w3.org/2000/svg" xmlns:xlink="http://www.w3.org/1999/xlink" viewBox="0 0 500 500" width="500"
    height="500" style="width: 100%; height: 100%; transform: translate3d(0px, 0px, 0px);"
    preserveAspectRatio="xMidYMid meet">
    <defs>
        <clipPath id="__lottie_element_147">
            <rect width="500" height="500" x="0" y="0"></rect>
        </clipPath>
    </defs>
    <g clip-path="url(#__lottie_element_147)">
        <g style="display: block;" transform="matrix(0.5400000214576721,0,0,0.5400000214576721,200,268.57000732421875)"
            opacity="0.17499999999999005">
            <g opacity="1" transform="matrix(1,0,0,1,0,0)">
                <path fill="rgb(255,255,255)" fill-opacity="1"
                    d=" M0,-100 C-50,-100 -50,-50 -50,0 C0,50 0,50 50,0 C50,-50 50,-100 0,-100z"></path>
                <path stroke-linecap="butt" stroke-linejoin="miter" fill-opacity="0" stroke-miterlimit="4"
                    stroke="rgb(255,255,255)" stroke-opacity="1" stroke-width="8"
                    d=" M0,-100 C-50,-100 -50,-50 -50,0 C0,50 0,50 50,0 C50,-50 50,-100 0,-100z"></path>
            </g>
        </g>
        <g style="display: block;" transform="matrix(0.5400000214576721,0,0,0.5400000214576721,300,268.57000732421875)"
            opacity="1">
            <g opacity="1" transform="matrix(1,0,0,1,0,0)">
                <path fill="rgb(255,255,255)" fill-opacity="1"
                    d=" M0,-100 C-50,-100 -50,-50 -50,0 C0,50 0,50 50,0 C50,-50 50,-100 0,-100z"></path>
                <path stroke-linecap="butt" stroke-linejoin="miter" fill-opacity="0" stroke-miterlimit="4"
                    stroke="rgb(255,255,255)" stroke-opacity="1" stroke-width="8"
                    d=" M0,-100 C-50,-100 -50,-50 -50,0 C0,50 0,50 50,0 C50,-50 50,-100 0,-100z"></path>
            </g>
        </g>
        <g style="display: none;"
            transform="matrix(0.03173043951392174,-0.9994964599609375,0.9994964599609375,0.03173043951392174,250,250)"
            opacity="0.03999999999999986">
            <g opacity="1" transform="matrix(1,0,0,1,0,0)">
                <path stroke-linecap="round" stroke-linejoin="miter" fill-opacity="0" stroke-miterlimit="4"
                    stroke="rgb(255,255,255)" stroke-opacity="1" stroke-width="12"
                    d=" M150,-50 C50,-200 -50,-200 -150,-50"></path>
            </g>
            <g opacity="1" transform="matrix(1,0,0,1,0,0)">
                <path stroke-linecap="butt" stroke-linejoin="miter" fill-opacity="0" stroke-miterlimit="4"
                    stroke="rgb(255,255,255)" stroke-opacity="1" stroke-width="12"
                    d=" M-150.5,-100 C-150.5,-100 -150,-50 -150,-50 C-150,-50 -100,-50 -100,-50"></path>
            </g>
        </g>
        <g style="display: none;"
            transform="matrix(0.0677352249622345,-0.9977033138275146,0.9977033138275146,0.0677352249622345,250,250)"
            opacity="0.03499999999999986">
            <g opacity="1" transform="matrix(1,0,0,1,0,0)">
                <path stroke-linecap="round" stroke-linejoin="miter" fill-opacity="0" stroke-miterlimit="4"
                    stroke="rgb(255,255,255)" stroke-opacity="1" stroke-width="12" d=" M150,50 C50,200 -50,200 -150,50">
                </path>
            </g>
            <g opacity="1" transform="matrix(1,0,0,1,0,0)">
                <path stroke-linecap="butt" stroke-linejoin="miter" fill-opacity="0" stroke-miterlimit="4"
                    stroke="rgb(255,255,255)" stroke-opacity="1" stroke-width="12"
                    d=" M99.5,50 C99.5,50 150,50 150,50 C150,50 150,100 150,100"></path>
            </g>
        </g>
    </g>
</svg>