<svg xmlns="http://www.w3.org/2000/svg" xmlns:xlink="http://www.w3.org/1999/xlink" viewBox="0 0 500 500" width="500"
    height="500" style="width: 100%; height: 100%; transform: translate3d(0px, 0px, 0px);"
    preserveAspectRatio="xMidYMid meet">
    <defs>
        <clipPath id="__lottie_element_22">
            <rect width="500" height="500" x="0" y="0"></rect>
        </clipPath>
        <symbol id="__lottie_element_33">
            <g>
                <g style="display: block;" transform="matrix(1,0,0,1,250,250)" opacity="1">
                    <g opacity="1" transform="matrix(1,0,0,1,0,0)">
                        <path fill="rgb(255,255,255)" fill-opacity="1"
                            d=" M-113,-70 C-113,-70 -114,72 -114,72 C-114,72 121,71 121,71 C121,71 123,-69 123,-69 C123,-69 -113,-70 -113,-70z">
                        </path>
                    </g>
                </g>
            </g>
        </symbol>
        <symbol id="__lottie_element_39">
            <g>
                <g style="display: block;" transform="matrix(1,0,0,1,250,250)" opacity="1">
                    <g opacity="1" transform="matrix(1,0,0,1,0,0)">
                        <path fill="rgb(255,255,255)" fill-opacity="1"
                            d=" M-113,-70 C-113,-70 -114,72 -114,72 C-114,72 121,71 121,71 C121,71 123,-69 123,-69 C123,-69 -113,-70 -113,-70z">
                        </path>
                    </g>
                </g>
            </g>
        </symbol>
        <mask id="__lottie_element_39_1" mask-type="alpha">
            <use xlink:href="#__lottie_element_39"></use>
        </mask>
        <mask id="__lottie_element_33_1" mask-type="alpha">
            <use xlink:href="#__lottie_element_33"></use>
        </mask>
    </defs>
    <g clip-path="url(#__lottie_element_22)">
        <g style="display: block;"
            transform="matrix(-0.8999999761581421,0,0,-0.8999999761581421,150.5500030517578,294.54998779296875)"
            opacity="1">
            <g opacity="1" transform="matrix(1,0,0,1,0,0)">
                <path fill="rgb(255,255,255)" fill-opacity="1"
                    d=" M-70,-30 C-150,-30 -70,-30 -150,-30 C-230,-30 -230.05599975585938,49.79199981689453 -230.05599975585938,49.79199981689453 C-230.05599975585938,49.79199981689453 9.722000122070312,49.79199981689453 9.722000122070312,49.79199981689453 C9.722000122070312,49.79199981689453 10,-30 -70,-30z">
                </path>
            </g>
        </g>
        <g style="display: block;"
            transform="matrix(0.8999999761581421,0,0,0.8999999761581421,349.45001220703125,205.4499969482422)"
            opacity="1">
            <g opacity="1" transform="matrix(1,0,0,1,0,0)">
                <path fill="rgb(255,255,255)" fill-opacity="1"
                    d=" M-70,-30 C-150,-30 -70,-30 -150,-30 C-230,-30 -230.05599975585938,49.79199981689453 -230.05599975585938,49.79199981689453 C-230.05599975585938,49.79199981689453 9.722000122070312,49.79199981689453 9.722000122070312,49.79199981689453 C9.722000122070312,49.79199981689453 10,-30 -70,-30z">
                </path>
            </g>
        </g>
        <g style="display: block;" transform="matrix(1,0,0,1,250,250)" opacity="1">
            <path fill="rgb(255,255,255)" fill-opacity="1"
                d=" M0,-43 C23.731700897216797,-43 43,-23.731700897216797 43,0 C43,23.731700897216797 23.731700897216797,43 0,43 C-23.731700897216797,43 -43,23.731700897216797 -43,0 C-43,-23.731700897216797 -23.731700897216797,-43 0,-43z">
            </path>
            <g opacity="1" transform="matrix(1,0,0,1,0,0)">
                <path fill="rgb(255,255,255)" fill-opacity="1"
                    d=" M0,-43 C23.731700897216797,-43 43,-23.731700897216797 43,0 C43,23.731700897216797 23.731700897216797,43 0,43 C-23.731700897216797,43 -43,23.731700897216797 -43,0 C-43,-23.731700897216797 -23.731700897216797,-43 0,-43z">
                </path>
            </g>
        </g>
        <g style="display: block;" mask="url(#__lottie_element_33_1)">
            <g transform="matrix(1,0,0,1,250,250)" opacity="1">
                <path fill="rgb(255,255,255)" fill-opacity="1"
                    d=" M0,-43 C23.731700897216797,-43 43,-23.731700897216797 43,0 C43,23.731700897216797 23.731700897216797,43 0,43 C-23.731700897216797,43 -43,23.731700897216797 -43,0 C-43,-23.731700897216797 -23.731700897216797,-43 0,-43z">
                </path>
                <g opacity="1" transform="matrix(1,0,0,1,0,0)">
                    <path fill="rgb(0,0,0)" fill-opacity="1"
                        d=" M0,-43 C23.731700897216797,-43 43,-23.731700897216797 43,0 C43,23.731700897216797 23.731700897216797,43 0,43 C-23.731700897216797,43 -43,23.731700897216797 -43,0 C-43,-23.731700897216797 -23.731700897216797,-43 0,-43z">
                    </path>
                </g>
            </g>
        </g>
        <g style="display: block;" transform="matrix(1,0,0,1,250,250)" opacity="1">
            <path fill="rgb(255,255,255)" fill-opacity="1"
                d=" M0,-43 C23.731700897216797,-43 43,-23.731700897216797 43,0 C43,23.731700897216797 23.731700897216797,43 0,43 C-23.731700897216797,43 -43,23.731700897216797 -43,0 C-43,-23.731700897216797 -23.731700897216797,-43 0,-43z">
            </path>
            <g opacity="1" transform="matrix(1,0,0,1,0,0)">
                <path fill="rgb(255,255,255)" fill-opacity="1"
                    d=" M0,-43 C23.731700897216797,-43 43,-23.731700897216797 43,0 C43,23.731700897216797 23.731700897216797,43 0,43 C-23.731700897216797,43 -43,23.731700897216797 -43,0 C-43,-23.731700897216797 -23.731700897216797,-43 0,-43z">
                </path>
            </g>
        </g>
        <g style="display: block;" mask="url(#__lottie_element_39_1)">
            <g transform="matrix(1,0,0,1,250,250)" opacity="1">
                <path fill="rgb(255,255,255)" fill-opacity="1"
                    d=" M0,-43 C23.731700897216797,-43 43,-23.731700897216797 43,0 C43,23.731700897216797 23.731700897216797,43 0,43 C-23.731700897216797,43 -43,23.731700897216797 -43,0 C-43,-23.731700897216797 -23.731700897216797,-43 0,-43z">
                </path>
                <g opacity="1" transform="matrix(1,0,0,1,0,0)">
                    <path fill="rgb(0,0,0)" fill-opacity="1"
                        d=" M0,-43 C23.731700897216797,-43 43,-23.731700897216797 43,0 C43,23.731700897216797 23.731700897216797,43 0,43 C-23.731700897216797,43 -43,23.731700897216797 -43,0 C-43,-23.731700897216797 -23.731700897216797,-43 0,-43z">
                    </path>
                </g>
            </g>
        </g>
    </g>
</svg>