<svg xmlns="http://www.w3.org/2000/svg" xmlns:xlink="http://www.w3.org/1999/xlink" viewBox="0 0 500 500" width="500"
    height="500" style="width: 100%; height: 100%; transform: translate3d(0px, 0px, 0px);"
    preserveAspectRatio="xMidYMid meet">
    <defs>
        <clipPath id="__lottie_element_56">
            <rect width="500" height="500" x="0" y="0"></rect>
        </clipPath>
    </defs>
    <g clip-path="url(#__lottie_element_56)">
        <g style="display: block;"
            transform="matrix(0.6183599829673767,0,0,0.6183599829673767,193.019775390625,367.7861633300781)"
            opacity="1">
            <g opacity="1" transform="matrix(1,0,0,1,0,0)">
                <path fill="rgb(255,255,255)" fill-opacity="1"
                    d=" M-110.5,52.83300018310547 C-110,53.33300018310547 10,53.33300018310547 10,53.33300018310547 C10,53.33300018310547 10,-30 -70,-30 C-150,-30 -70,-30 -150,-30 C-230,-30 -230,53.33300018310547 -230,53.33300018310547">
                </path>
            </g>
        </g>
        <g style="display: block;" transform="matrix(0.865119993686676,0,0,0.865119993686676,125,300)" opacity="1">
            <g opacity="1" transform="matrix(1,0,0,1,0,0)">
                <path fill="rgb(255,255,255)" fill-opacity="1"
                    d=" M0,-43 C23.731700897216797,-43 43,-23.731700897216797 43,0 C43,23.731700897216797 23.731700897216797,43 0,43 C-23.731700897216797,43 -43,23.731700897216797 -43,0 C-43,-23.731700897216797 -23.731700897216797,-43 0,-43z">
                </path>
            </g>
        </g>
        <g style="display: block;" transform="matrix(0.865119993686676,0,0,0.865119993686676,375,200)" opacity="1">
            <g opacity="1" transform="matrix(1,0,0,1,0,0)">
                <path fill="rgb(255,255,255)" fill-opacity="1"
                    d=" M0,-43 C23.731700897216797,-43 43,-23.731700897216797 43,0 C43,23.731700897216797 23.731700897216797,43 0,43 C-23.731700897216797,43 -43,23.731700897216797 -43,0 C-43,-23.731700897216797 -23.731700897216797,-43 0,-43z">
                </path>
            </g>
        </g>
        <g style="display: block;"
            transform="matrix(-0.6183599829673767,0,0,-0.6183599829673767,306.980224609375,132.2138214111328)"
            opacity="1">
            <g opacity="1" transform="matrix(1,0,0,1,0,0)">
                <path fill="rgb(255,255,255)" fill-opacity="1"
                    d=" M-110.5,52.83300018310547 C-110,53.33300018310547 10,53.33300018310547 10,53.33300018310547 C10,53.33300018310547 10,-30 -70,-30 C-150,-30 -70,-30 -150,-30 C-230,-30 -230,53.33300018310547 -230,53.33300018310547">
                </path>
            </g>
        </g>
        <g style="display: block;" transform="matrix(1,0,0,1,250,225)" opacity="1">
            <g opacity="1" transform="matrix(1,0,0,1,0,25)">
                <path fill="rgb(255,255,255)" fill-opacity="1"
                    d=" M5,-195 C5,-195 5,195 5,195 C5,197.75950622558594 2.759500026702881,200 0,200 C0,200 0,200 0,200 C-2.759500026702881,200 -5,197.75950622558594 -5,195 C-5,195 -5,-195 -5,-195 C-5,-197.75950622558594 -2.759500026702881,-200 0,-200 C0,-200 0,-200 0,-200 C2.759500026702881,-200 5,-197.75950622558594 5,-195z">
                </path>
            </g>
        </g>
    </g>
</svg>