<svg xmlns="http://www.w3.org/2000/svg" xmlns:xlink="http://www.w3.org/1999/xlink" viewBox="0 0 500 500" width="500"
    height="500" style="width: 100%; height: 100%; transform: translate3d(0px, 0px, 0px);"
    preserveAspectRatio="xMidYMid meet">
    <defs>
        <clipPath id="__lottie_element_134">
            <rect width="500" height="500" x="0" y="0"></rect>
        </clipPath>
    </defs>
    <g clip-path="url(#__lottie_element_134)">
        <g style="display: block;"
            transform="matrix(0.6307100057601929,0,0,0.6307100057601929,344.0034484863281,318.5678405761719)"
            opacity="1">
            <g opacity="1" transform="matrix(1,0,0,1,0,0)">
                <path fill="rgb(255,255,255)" fill-opacity="1"
                    d=" M-109.90499877929688,49.698001861572266 C-109.40499877929688,50.198001861572266 10.595000267028809,50.198001861572266 10.595000267028809,50.198001861572266 C10.595000267028809,50.198001861572266 10.595000267028809,-29.802000045776367 -69.40499877929688,-29.802000045776367 C-149.63800048828125,-29.63800048828125 -148.8800048828125,-29.604000091552734 -228.8800048828125,-29.604000091552734 C-228.9149932861328,-29.638999938964844 -229.40499877929688,50.198001861572266 -229.40499877929688,50.198001861572266">
                </path>
            </g>
        </g>
        <g style="display: block;"
            transform="matrix(0.6307100057601929,0,0,0.6307100057601929,294.3784484863281,318.6928405761719)"
            opacity="1">
            <g opacity="1" transform="matrix(1,0,0,1,0,0)">
                <path fill="rgb(255,255,255)" fill-opacity="1"
                    d=" M-110.5,49.5 C-110,50 10,50 10,50 C10,50 8.913999557495117,-29.63800048828125 9.276000022888184,-30 C-70.7239990234375,-30 -70,-30 -150,-30 C-230,-30 -230,50 -230,50">
                </path>
            </g>
        </g>
        <g style="display: block;" transform="matrix(1,0,0,1,250,240)" opacity="1">
            <g opacity="1" transform="matrix(1,0,0,1,0,0)">
                <path fill="rgb(255,255,255)" fill-opacity="1"
                    d=" M0,-50 C-25,-50 -50,-25 -50,0.5 C-50,26 -23.451000213623047,50.23500061035156 0,50 C0,50 0,0 0,0 C0,0 0,-50 0,-50z">
                </path>
            </g>
        </g>
        <g style="display: block;" transform="matrix(1,0,0,1,250,240)" opacity="1">
            <g opacity="1" transform="matrix(1,0,0,1,0,0)">
                <path fill="rgb(255,255,255)" fill-opacity="1"
                    d=" M0,-50 C25,-50 50,-24.5 50,0.5 C50,25.5 25,50 0,50 C0,50 0,0 0,0 C0,0 0,-50 0,-50z"></path>
            </g>
        </g>
    </g>
</svg>